<?xml version="1.0" encoding="UTF-8" standalone="no"?>
<!-- Generator: Adobe Illustrator 21.1.0, SVG Export Plug-In . SVG Version: 6.00 Build 0)  -->

<svg
   version="1.1"
   x="0px"
   y="0px"
   viewBox="0 0 171.00001 171.00001"
   xml:space="preserve"
   id="svg5"
   sodipodi:docname="red.svg"
   width="171"
   height="171"
   inkscape:version="1.3 (0e150ed6c4, 2023-07-21)"
   xmlns:inkscape="http://www.inkscape.org/namespaces/inkscape"
   xmlns:sodipodi="http://sodipodi.sourceforge.net/DTD/sodipodi-0.dtd"
   xmlns="http://www.w3.org/2000/svg"
   xmlns:svg="http://www.w3.org/2000/svg"><defs
   id="defs5" /><sodipodi:namedview
   id="namedview5"
   pagecolor="#505050"
   bordercolor="#eeeeee"
   borderopacity="1"
   inkscape:showpageshadow="0"
   inkscape:pageopacity="0"
   inkscape:pagecheckerboard="0"
   inkscape:deskcolor="#d1d1d1"
   inkscape:zoom="0.69046228"
   inkscape:cx="84.725844"
   inkscape:cy="85.449997"
   inkscape:window-width="1356"
   inkscape:window-height="740"
   inkscape:window-x="5"
   inkscape:window-y="1103"
   inkscape:window-maximized="1"
   inkscape:current-layer="svg5" />&#10;<style
   type="text/css"
   id="style1">&#10;	.st0{fill:#FF4500;}&#10;	.st1{fill:#FFFFFF;}&#10;	.st2{display:none;}&#10;	.st3{display:inline;fill:none;stroke:#D8D8D8;stroke-width:0.5;stroke-miterlimit:10;}&#10;</style>&#10;<g
   id="Artwork"
   transform="translate(-85.399994,-85.399994)">&#10;	<g
   id="g1">&#10;		<circle
   class="st0"
   cx="170.89999"
   cy="170.89999"
   r="85.5"
   id="circle1" />&#10;		<path
   class="st1"
   d="m 227.9,170.9 c 0,-6.9 -5.6,-12.5 -12.5,-12.5 -3.4,0 -6.4,1.3 -8.6,3.5 -8.5,-6.1 -20.3,-10.1 -33.3,-10.6 l 5.7,-26.7 18.5,3.9 c 0.2,4.7 4.1,8.5 8.9,8.5 4.9,0 8.9,-4 8.9,-8.9 0,-4.9 -4,-8.9 -8.9,-8.9 -3.5,0 -6.5,2 -7.9,5 L 178,119.8 c -0.6,-0.1 -1.2,0 -1.7,0.3 -0.5,0.3 -0.8,0.8 -1,1.4 l -6.3,29.8 c -13.3,0.4 -25.2,4.3 -33.8,10.6 -2.2,-2.1 -5.3,-3.5 -8.6,-3.5 -6.9,0 -12.5,5.6 -12.5,12.5 0,5.1 3,9.4 7.4,11.4 -0.2,1.2 -0.3,2.5 -0.3,3.8 0,19.2 22.3,34.7 49.9,34.7 27.6,0 49.9,-15.5 49.9,-34.7 0,-1.3 -0.1,-2.5 -0.3,-3.7 4.1,-2 7.2,-6.4 7.2,-11.5 z m -85.5,8.9 c 0,-4.9 4,-8.9 8.9,-8.9 4.9,0 8.9,4 8.9,8.9 0,4.9 -4,8.9 -8.9,8.9 -4.9,0 -8.9,-4 -8.9,-8.9 z m 49.7,23.5 c -6.1,6.1 -17.7,6.5 -21.1,6.5 -3.4,0 -15.1,-0.5 -21.1,-6.5 -0.9,-0.9 -0.9,-2.4 0,-3.3 0.9,-0.9 2.4,-0.9 3.3,0 3.8,3.8 12,5.2 17.9,5.2 5.9,0 14,-1.4 17.9,-5.2 0.9,-0.9 2.4,-0.9 3.3,0 0.7,1 0.7,2.4 -0.2,3.3 z m -1.6,-14.6 c -4.9,0 -8.9,-4 -8.9,-8.9 0,-4.9 4,-8.9 8.9,-8.9 4.9,0 8.9,4 8.9,8.9 0,4.9 -4,8.9 -8.9,8.9 z"
   id="path1" />&#10;	</g>&#10;</g>&#10;<g
   id="Spacing_Guide"
   class="st2"
   transform="translate(-85.399994,-85.399994)">&#10;	<rect
   class="st3"
   width="85.400002"
   height="85.400002"
   id="rect1"
   x="0"
   y="0" />&#10;	<rect
   class="st3"
   width="341.79999"
   height="85.400002"
   id="rect2"
   x="0"
   y="0" />&#10;	<rect
   y="256.29999"
   class="st3"
   width="341.79999"
   height="85.400002"
   id="rect3"
   x="0" />&#10;	<rect
   class="st3"
   width="85.400002"
   height="341.79999"
   id="rect4"
   x="0"
   y="0" />&#10;	<rect
   x="256.39999"
   class="st3"
   width="85.400002"
   height="341.79999"
   id="rect5"
   y="0" />&#10;</g>&#10;</svg>
